<mxfile host="Electron" modified="2024-03-12T02:28:57.993Z" agent="Mozilla/5.0 (Macintosh; Intel Mac OS X 10_15_7) AppleWebKit/537.36 (KHTML, like Gecko) draw.io/23.0.2 Chrome/120.0.6099.109 Electron/28.1.0 Safari/537.36" etag="6gMPa29mQXuFwq-N-2JQ" version="23.0.2" type="device">
  <diagram name="Page-1" id="te1OvfgXQtDCxCHfEtR6">
    <mxGraphModel dx="1183" dy="760" grid="1" gridSize="10" guides="1" tooltips="1" connect="1" arrows="1" fold="1" page="1" pageScale="1" pageWidth="850" pageHeight="1100" math="0" shadow="0">
      <root>
        <mxCell id="0" />
        <mxCell id="1" parent="0" />
        <mxCell id="W-jwm6uHAI1Lu78tiC7t-1" value="" style="group" vertex="1" connectable="0" parent="1">
          <mxGeometry x="104" y="190" width="643" height="380" as="geometry" />
        </mxCell>
        <mxCell id="W-jwm6uHAI1Lu78tiC7t-2" value="User" style="shape=umlActor;verticalLabelPosition=bottom;verticalAlign=top;html=1;outlineConnect=0;" vertex="1" parent="W-jwm6uHAI1Lu78tiC7t-1">
          <mxGeometry y="164.66666666666666" width="67.6842105263158" height="126.66666666666667" as="geometry" />
        </mxCell>
        <mxCell id="W-jwm6uHAI1Lu78tiC7t-3" value="" style="endArrow=classic;html=1;rounded=0;entryX=0;entryY=0.5;entryDx=0;entryDy=0;" edge="1" parent="W-jwm6uHAI1Lu78tiC7t-1" target="W-jwm6uHAI1Lu78tiC7t-9">
          <mxGeometry width="50" height="50" relative="1" as="geometry">
            <mxPoint x="90.24561403508771" y="190" as="sourcePoint" />
            <mxPoint x="270.7368421052632" y="164.66666666666666" as="targetPoint" />
          </mxGeometry>
        </mxCell>
        <mxCell id="W-jwm6uHAI1Lu78tiC7t-4" value="" style="swimlane;startSize=0;" vertex="1" parent="W-jwm6uHAI1Lu78tiC7t-1">
          <mxGeometry x="180.49122807017542" y="76" width="451.2280701754386" height="304" as="geometry">
            <mxRectangle x="70" y="40" width="50" height="40" as="alternateBounds" />
          </mxGeometry>
        </mxCell>
        <mxCell id="W-jwm6uHAI1Lu78tiC7t-5" value="" style="group" vertex="1" connectable="0" parent="W-jwm6uHAI1Lu78tiC7t-4">
          <mxGeometry x="135.36842105263156" y="177.33333333333334" width="203.05263157894734" height="76" as="geometry" />
        </mxCell>
        <mxCell id="W-jwm6uHAI1Lu78tiC7t-6" value="" style="ellipse;whiteSpace=wrap;html=1;" vertex="1" parent="W-jwm6uHAI1Lu78tiC7t-5">
          <mxGeometry width="180.49122807017542" height="76" as="geometry" />
        </mxCell>
        <mxCell id="W-jwm6uHAI1Lu78tiC7t-7" value="&lt;font style=&quot;font-size: 14px;&quot;&gt;Calculate safe move&lt;/font&gt;" style="text;html=1;strokeColor=none;fillColor=none;align=center;verticalAlign=middle;whiteSpace=wrap;rounded=0;" vertex="1" parent="W-jwm6uHAI1Lu78tiC7t-5">
          <mxGeometry x="9.227614035087718" y="15.2" width="162.03599999999997" height="45.6" as="geometry" />
        </mxCell>
        <mxCell id="W-jwm6uHAI1Lu78tiC7t-8" value="" style="group" vertex="1" connectable="0" parent="W-jwm6uHAI1Lu78tiC7t-4">
          <mxGeometry x="135.3684210526316" y="76" width="180.49122807017542" height="76" as="geometry" />
        </mxCell>
        <mxCell id="W-jwm6uHAI1Lu78tiC7t-9" value="" style="ellipse;whiteSpace=wrap;html=1;" vertex="1" parent="W-jwm6uHAI1Lu78tiC7t-8">
          <mxGeometry width="180.49122807017542" height="76" as="geometry" />
        </mxCell>
        <mxCell id="W-jwm6uHAI1Lu78tiC7t-10" value="&lt;font style=&quot;font-size: 14px;&quot;&gt;Input board configuration&lt;/font&gt;" style="text;html=1;strokeColor=none;fillColor=none;align=center;verticalAlign=middle;whiteSpace=wrap;rounded=0;" vertex="1" parent="W-jwm6uHAI1Lu78tiC7t-8">
          <mxGeometry x="47.629451688351566" y="15.2" width="85.23354720993856" height="45.6" as="geometry" />
        </mxCell>
        <mxCell id="W-jwm6uHAI1Lu78tiC7t-11" value="&lt;font style=&quot;font-size: 17px;&quot;&gt;Minesweeper Solver Application&lt;/font&gt;" style="text;html=1;strokeColor=none;fillColor=none;align=center;verticalAlign=middle;whiteSpace=wrap;rounded=0;" vertex="1" parent="W-jwm6uHAI1Lu78tiC7t-1">
          <mxGeometry x="180.49122807017542" width="462.50877192982455" height="76" as="geometry" />
        </mxCell>
        <mxCell id="W-jwm6uHAI1Lu78tiC7t-12" value="" style="endArrow=classic;startArrow=classic;html=1;rounded=0;entryX=0;entryY=0.5;entryDx=0;entryDy=0;" edge="1" parent="W-jwm6uHAI1Lu78tiC7t-1" target="W-jwm6uHAI1Lu78tiC7t-6">
          <mxGeometry width="50" height="50" relative="1" as="geometry">
            <mxPoint x="90.24561403508771" y="291.3333333333333" as="sourcePoint" />
            <mxPoint x="315.859649122807" y="293.8666666666667" as="targetPoint" />
          </mxGeometry>
        </mxCell>
        <mxCell id="W-jwm6uHAI1Lu78tiC7t-13" value="&lt;font style=&quot;font-size: 14px;&quot;&gt;Display safe move&lt;/font&gt;" style="text;html=1;strokeColor=none;fillColor=none;align=center;verticalAlign=middle;whiteSpace=wrap;rounded=0;" vertex="1" parent="W-jwm6uHAI1Lu78tiC7t-1">
          <mxGeometry x="67.6842105263158" y="304" width="225.6140350877193" height="25.333333333333336" as="geometry" />
        </mxCell>
        <mxCell id="W-jwm6uHAI1Lu78tiC7t-14" value="&lt;b&gt;&lt;font style=&quot;font-size: 36px;&quot;&gt;Context View&lt;/font&gt;&lt;/b&gt;" style="text;html=1;strokeColor=none;fillColor=none;align=center;verticalAlign=middle;whiteSpace=wrap;rounded=0;" vertex="1" parent="1">
          <mxGeometry x="247" y="20" width="357" height="50" as="geometry" />
        </mxCell>
        <mxCell id="W-jwm6uHAI1Lu78tiC7t-15" value="&lt;font style=&quot;font-size: 16px;&quot;&gt;OOP&lt;br&gt;Minesweeper Solver&lt;br&gt;4+1&lt;br&gt;Mia Weber &amp;amp; Brandon Kamplain&lt;/font&gt;" style="text;html=1;strokeColor=none;fillColor=none;align=center;verticalAlign=middle;whiteSpace=wrap;rounded=0;" vertex="1" parent="1">
          <mxGeometry x="252" y="60" width="347" height="95" as="geometry" />
        </mxCell>
      </root>
    </mxGraphModel>
  </diagram>
</mxfile>
